# xmcd
#
# Track frame offsets:
#	150
#	16845
#	35632
#	49013
#	66425
#	86140
#	99846
#	118686
#	135422
#	151340
#	166509
#	191555
#	210056
#	228595
#	249036
#	266257
#	281556
#	304252
#	321661
#	335830
#
# Disc length: 4658 seconds
#
# Revision: 3
# Processed by: cddbd v1.5.2PL0 Copyright (c) Steve Scherf et al.
# Submitted via: audiograbber 1.83.01
#
DISCID=0d123014
DTITLE=Various Artist - Cream Of Country Volume 8
DYEAR=2005
DGENRE=Country
TTITLE0=Gretchen Wilson - Redneck Woman
TTITLE1=Josh Turner - Long Black Train
TTITLE2=Brooks and Dunn - That's What She Gets For Loving Me
TTITLE3=Reba McEntire - Somebody
TTITLE4=Dierks Bentley - What Was I Thinkin'
TTITLE5=Norah Jones featuring Dolly Parton - Creepin' In
TTITLE6=Tim McGraw - She's My Kind Of Rain
TTITLE7=Lonestar - My Front Porch Looking In
TTITLE8=Terri Clark - Girls Lie Too
TTITLE9=Big And Rich - Save A Horse
TTITLE10=Toby Keith - I Love This Bar
TTITLE11=Julie Roberts - Break Down Here
TTITLE12=George Strait - Desperately
TTITLE13=Alan Jackson - Remember When
TTITLE14=Sara Evans - Suds In The Bucket
TTITLE15=Montgomery Gentry - If You Ever Stop Loving Me
TTITLE16=Kenny Chesney - There Goes My Life
TTITLE17=Brad Paisley featuring Alison Krauss - Whiskey Lullaby
TTITLE18=Rascal Flatts - Love You Out Loud
TTITLE19=Blue County - Good Little Girls
EXTD=YEAR: 2005
EXTT0=
EXTT1=
EXTT2=
EXTT3=
EXTT4=
EXTT5=
EXTT6=
EXTT7=
EXTT8=
EXTT9=
EXTT10=
EXTT11=
EXTT12=
EXTT13=
EXTT14=
EXTT15=
EXTT16=
EXTT17=
EXTT18=
EXTT19=
PLAYORDER=
